name analog
datacolumns 19
datarows 39
range 0.3445000000000001 0.36350000000000016
endheader
time	ground_force_vx	ground_force_vy	ground_force_vz	ground_force_px	ground_force_py	ground_force_pz	l_ground_force_vx	l_ground_force_vy	l_ground_force_vz	l_ground_force_px	l_ground_force_py	l_ground_force_pz	ground_torque_x	ground_torque_y	ground_torque_z	l_ground_torque_x	l_ground_torque_y	l_ground_torque_z
0.3445000000000001	-0.0	-0.0	-0.0	-3.642009258270264	-3.2197866439819336	-872.8573608398438	-0.0	-0.0	-0.0	-0.0	-0.0	-0.0	-0.0	-0.0	-0.0	-0.0	-0.0	-0.0
0.3450000000000001	-0.0	-0.0	-0.0	-3.405686140060425	-4.6876606941223145	-873.1034545898438	-0.0	-0.0	-0.0	-0.0	-0.0	-0.0	-0.0	-0.0	-0.0	-0.0	-0.0	-0.0
0.3455000000000001	-0.0	-0.0	-0.0	-2.2460241317749023	-5.4945902824401855	-872.8523559570312	-0.0	-0.0	-0.0	-0.0	-0.0	-0.0	-0.0	-0.0	-0.0	-0.0	-0.0	-0.0
0.3460000000000001	-0.0	-0.0	-0.0	-1.994296312332153	-7.162068843841553	-871.9614868164062	-0.0	-0.0	-0.0	-0.0	-0.0	-0.0	-0.0	-0.0	-0.0	-0.0	-0.0	-0.0
0.3465000000000001	-0.0	-0.0	-0.0	-2.3194732666015625	-8.273231506347656	-871.5850830078125	-0.0	-0.0	-0.0	-0.0	-0.0	-0.0	-0.0	-0.0	-0.0	-0.0	-0.0	-0.0
0.3470000000000001	-0.0	-0.0	-0.0	-2.115731239318848	-10.10637378692627	-869.365478515625	-0.0	-0.0	-0.0	-0.0	-0.0	-0.0	-0.0	-0.0	-0.0	-0.0	-0.0	-0.0
0.3475000000000001	-0.0	-0.0	-0.0	-2.7174222469329834	-10.768758773803713	-868.0805053710938	-0.0	-0.0	-0.0	-0.0	-0.0	-0.0	-0.0	-0.0	-0.0	-0.0	-0.0	-0.0
0.3480000000000001	-0.0	-0.0	-0.0	-3.373887538909912	-10.792232513427734	-868.0525512695312	-0.0	-0.0	-0.0	-0.0	-0.0	-0.0	-0.0	-0.0	-0.0	-0.0	-0.0	-0.0
0.3485000000000001	-0.0	-0.0	-0.0	-3.738953113555908	-11.700132369995115	-866.061279296875	-0.0	-0.0	-0.0	-0.0	-0.0	-0.0	-0.0	-0.0	-0.0	-0.0	-0.0	-0.0
0.3490000000000001	-0.0	-0.0	-0.0	-4.4197516441345215	-11.797679901123049	-863.4290771484375	-0.0	-0.0	-0.0	-0.0	-0.0	-0.0	-0.0	-0.0	-0.0	-0.0	-0.0	-0.0
0.3495000000000001	-0.0	-0.0	-0.0	-3.673953533172608	-11.838035583496094	-864.1621704101562	-0.0	-0.0	-0.0	-0.0	-0.0	-0.0	-0.0	-0.0	-0.0	-0.0	-0.0	-0.0
0.3500000000000001	-0.0	-0.0	-0.0	-3.86882209777832	-11.805232048034668	-861.2113037109375	-0.0	-0.0	-0.0	-0.0	-0.0	-0.0	-0.0	-0.0	-0.0	-0.0	-0.0	-0.0
0.3505000000000001	-0.0	-0.0	-0.0	-4.946401119232178	-11.141300201416016	-860.3190307617188	-0.0	-0.0	-0.0	-0.0	-0.0	-0.0	-0.0	-0.0	-0.0	-0.0	-0.0	-0.0
0.3510000000000001	-0.0	-0.0	-0.0	-5.788689136505127	-10.712167739868164	-857.6259155273438	-0.0	-0.0	-0.0	-0.0	-0.0	-0.0	-0.0	-0.0	-0.0	-0.0	-0.0	-0.0
0.35150000000000015	-0.0	-0.0	-0.0	-6.433526039123535	-9.79812240600586	-856.4613037109375	-0.0	-0.0	-0.0	-0.0	-0.0	-0.0	-0.0	-0.0	-0.0	-0.0	-0.0	-0.0
0.3520000000000001	-0.0	-0.0	-0.0	-7.800502777099609	-9.163772583007812	-852.7084350585938	-0.0	-0.0	-0.0	-0.0	-0.0	-0.0	-0.0	-0.0	-0.0	-0.0	-0.0	-0.0
0.35250000000000015	-0.0	-0.0	-0.0	-7.281772136688232	-8.372776985168457	-851.0311279296875	-0.0	-0.0	-0.0	-0.0	-0.0	-0.0	-0.0	-0.0	-0.0	-0.0	-0.0	-0.0
0.3530000000000001	-0.0	-0.0	-0.0	-7.303611278533935	-8.879449844360352	-848.2051391601562	-0.0	-0.0	-0.0	-0.0	-0.0	-0.0	-0.0	-0.0	-0.0	-0.0	-0.0	-0.0
0.35350000000000015	-0.0	-0.0	-0.0	-6.635347366333008	-9.32973575592041	-847.9849853515625	-0.0	-0.0	-0.0	-0.0	-0.0	-0.0	-0.0	-0.0	-0.0	-0.0	-0.0	-0.0
0.3540000000000001	-0.0	-0.0	-0.0	-5.943209648132324	-8.963835716247559	-846.3533325195312	-0.0	-0.0	-0.0	-0.0	-0.0	-0.0	-0.0	-0.0	-0.0	-0.0	-0.0	-0.0
0.35450000000000015	-0.0	-0.0	-0.0	-5.509939193725586	-9.248468399047852	-845.2432250976562	-0.0	-0.0	-0.0	-0.0	-0.0	-0.0	-0.0	-0.0	-0.0	-0.0	-0.0	-0.0
0.3550000000000001	-0.0	-0.0	-0.0	-5.328076362609863	-8.892233848571777	-843.3936767578125	-0.0	-0.0	-0.0	-0.0	-0.0	-0.0	-0.0	-0.0	-0.0	-0.0	-0.0	-0.0
0.35550000000000015	-0.0	-0.0	-0.0	-5.3697896003723145	-9.091300964355469	-840.8399658203125	-0.0	-0.0	-0.0	-0.0	-0.0	-0.0	-0.0	-0.0	-0.0	-0.0	-0.0	-0.0
0.3560000000000001	-0.0	-0.0	-0.0	-5.06776237487793	-9.396159172058104	-840.5	-0.0	-0.0	-0.0	-0.0	-0.0	-0.0	-0.0	-0.0	-0.0	-0.0	-0.0	-0.0
0.35650000000000015	-0.0	-0.0	-0.0	-5.375283718109131	-9.556915283203123	-838.44921875	-0.0	-0.0	-0.0	-0.0	-0.0	-0.0	-0.0	-0.0	-0.0	-0.0	-0.0	-0.0
0.3570000000000001	-0.0	-0.0	-0.0	-5.283139228820801	-9.663142204284668	-837.88037109375	-0.0	-0.0	-0.0	-0.0	-0.0	-0.0	-0.0	-0.0	-0.0	-0.0	-0.0	-0.0
0.35750000000000015	-0.0	-0.0	-0.0	-4.45855188369751	-9.19589138031006	-833.8577880859375	-0.0	-0.0	-0.0	-0.0	-0.0	-0.0	-0.0	-0.0	-0.0	-0.0	-0.0	-0.0
0.3580000000000001	-0.0	-0.0	-0.0	-4.297950744628906	-9.643577575683594	-830.9564819335938	-0.0	-0.0	-0.0	-0.0	-0.0	-0.0	-0.0	-0.0	-0.0	-0.0	-0.0	-0.0
0.35850000000000015	-0.0	-0.0	-0.0	-3.782015085220337	-9.572094917297363	-831.1767578125	-0.0	-0.0	-0.0	-0.0	-0.0	-0.0	-0.0	-0.0	-0.0	-0.0	-0.0	-0.0
0.3590000000000001	-0.0	-0.0	-0.0	-3.622315168380737	-9.57315731048584	-827.7802124023438	-0.0	-0.0	-0.0	-0.0	-0.0	-0.0	-0.0	-0.0	-0.0	-0.0	-0.0	-0.0
0.35950000000000015	-0.0	-0.0	-0.0	-2.8730669021606445	-9.661491394042969	-827.853759765625	-0.0	-0.0	-0.0	-0.0	-0.0	-0.0	-0.0	-0.0	-0.0	-0.0	-0.0	-0.0
0.3600000000000001	-0.0	-0.0	-0.0	-2.4269285202026367	-8.824132919311523	-825.9461059570312	-0.0	-0.0	-0.0	-0.0	-0.0	-0.0	-0.0	-0.0	-0.0	-0.0	-0.0	-0.0
0.36050000000000015	-0.0	-0.0	-0.0	-1.659262776374817	-8.395978927612305	-823.8985595703125	-0.0	-0.0	-0.0	-0.0	-0.0	-0.0	-0.0	-0.0	-0.0	-0.0	-0.0	-0.0
0.3610000000000001	-0.0	-0.0	-0.0	-1.5703836679458618	-8.021736145019531	-820.9321899414062	-0.0	-0.0	-0.0	-0.0	-0.0	-0.0	-0.0	-0.0	-0.0	-0.0	-0.0	-0.0
0.36150000000000015	-0.0	-0.0	-0.0	-1.3381576538085938	-7.291536331176758	-818.3212280273438	-0.0	-0.0	-0.0	-0.0	-0.0	-0.0	-0.0	-0.0	-0.0	-0.0	-0.0	-0.0
0.3620000000000001	-0.0	-0.0	-0.0	-1.232025146484375	-6.757003784179688	-817.2584228515625	-0.0	-0.0	-0.0	-0.0	-0.0	-0.0	-0.0	-0.0	-0.0	-0.0	-0.0	-0.0
0.36250000000000016	-0.0	-0.0	-0.0	-2.0866036415100098	-6.844907760620117	-812.7388916015625	-0.0	-0.0	-0.0	-0.0	-0.0	-0.0	-0.0	-0.0	-0.0	-0.0	-0.0	-0.0
0.3630000000000001	-0.0	-0.0	-0.0	-2.854736328125	-5.989941120147705	-810.4683227539062	-0.0	-0.0	-0.0	-0.0	-0.0	-0.0	-0.0	-0.0	-0.0	-0.0	-0.0	-0.0
0.36350000000000016	-0.0	-0.0	-0.0	-4.350828647613525	-4.952568054199219	-806.7353515625	-0.0	-0.0	-0.0	-0.0	-0.0	-0.0	-0.0	-0.0	-0.0	-0.0	-0.0	-0.0
